<?xml version="1.0" encoding="iso-8859-1"?>
<!-- Generator: Adobe Illustrator 19.0.0, SVG Export Plug-In . SVG Version: 6.00 Build 0)  -->
<svg version="1.1" id="Layer_1" xmlns="http://www.w3.org/2000/svg" xmlns:xlink="http://www.w3.org/1999/xlink" x="0px" y="0px"
	 viewBox="0 0 512 512" style="enable-background:new 0 0 512 512;" xml:space="preserve">
<path style="fill:#6D6459;" d="M400.201,457.978H343.08c-10.984,0-19.889-8.905-19.889-19.889s8.905-19.889,19.889-19.889h57.121
	c13.103,0,23.762-10.659,23.762-23.762V253.216c0-13.103-10.659-23.762-23.762-23.762H343.08c-10.984,0-19.889-8.905-19.889-19.889
	s8.905-19.889,19.889-19.889h57.121c35.037,0,63.541,28.504,63.541,63.541v141.223C463.74,429.474,435.236,457.978,400.201,457.978z
	"/>
<path style="fill:#C0B552;" d="M397.359,462.656l-12.095-302.734c-0.426-10.667-9.199-19.188-19.873-19.188H97.549
	c-10.675,0-19.448,8.521-19.873,19.188L65.581,462.61c-0.522,13.058,4.162,25.353,13.187,34.746
	C87.751,506.707,100.4,512,113.47,512h236.001c13.069,0,25.718-5.269,34.701-14.621C393.197,487.986,397.88,475.713,397.359,462.656
	z"/>
<path style="fill:#CFC859;" d="M242.741,140.735H97.549c-10.675,0-19.448,8.521-19.873,19.188L65.581,462.61
	c-0.522,13.058,4.162,25.353,13.187,34.746C87.751,506.707,100.4,512,113.47,512h129.271L242.741,140.735L242.741,140.735z"/>
<path style="fill:#E5E3DC;" d="M155.228,298.707c-10.984,0-19.889-8.905-19.889-19.889v-57.016c0-10.984,8.905-19.889,19.889-19.889
	s19.889,8.905,19.889,19.889v57.016C175.117,289.803,166.212,298.707,155.228,298.707z"/>
<path style="fill:#D8D6CE;" d="M324.317,36.998c-13.25,0-26.172,2.884-37.959,8.344C267.487,17.473,235.694,0,200.932,0
	c-40.581,0-77.051,23.978-93.67,59.973c-33.257,4.406-59.003,32.947-59.003,67.389c0,17.4,6.581,34.506,18.529,47.175
	c4.068,4.312,9.734,7.303,15.662,7.303h103.865c0.263,0,0.729,0.292,0.996,0.529c10.048,8.912,22.283,15.628,35.542,19.198v25.54
	c0,10.984,8.905,19.889,19.889,19.889s19.889-8.905,19.889-19.889v-24.286c15.911-3.176,29.547-10.373,40.868-20.98h81.835
	c8.011,0,15.36-4.995,19.076-12.094c6.72-12.844,10.272-27.585,10.272-42.111C414.68,77.808,374.143,36.998,324.317,36.998z"/>
<path style="fill:#E5E3DC;" d="M242.304,8.67C229.521,3.063,215.487,0,200.932,0c-40.581,0-77.051,23.978-93.67,59.973
	c-33.257,4.406-59.003,32.947-59.003,67.389c0,17.4,6.581,34.506,18.529,47.175c4.068,4.312,9.734,7.303,15.662,7.303h103.865
	c0.263,0,0.729,0.292,0.996,0.529c10.048,8.912,22.283,15.628,35.542,19.198v25.54c0,10.984,8.689,19.889,19.673,19.889
	L242.304,8.67z"/>
<g>
</g>
<g>
</g>
<g>
</g>
<g>
</g>
<g>
</g>
<g>
</g>
<g>
</g>
<g>
</g>
<g>
</g>
<g>
</g>
<g>
</g>
<g>
</g>
<g>
</g>
<g>
</g>
<g>
</g>
</svg>
