<?xml version="1.0" encoding="iso-8859-1"?>
<!-- Generator: Adobe Illustrator 19.0.0, SVG Export Plug-In . SVG Version: 6.00 Build 0)  -->
<svg version="1.1" id="Layer_1" xmlns="http://www.w3.org/2000/svg" xmlns:xlink="http://www.w3.org/1999/xlink" x="0px" y="0px"
	 viewBox="0 0 379 379" style="enable-background:new 0 0 379 379;" xml:space="preserve">
<g id="XMLID_1112_">
	<path id="XMLID_583_" style="fill:#FFA250;" d="M293.6,258.248H85.398c-37.811,0-68.748-30.936-68.748-68.748l0,0
		c0-37.811,30.936-68.748,68.748-68.748H293.6c37.811,0,68.748,30.936,68.748,68.748l0,0
		C362.348,227.312,331.412,258.248,293.6,258.248z"/>
	<path id="XMLID_582_" style="fill:#FF5959;" d="M347.193,221.306H31.806C14.312,221.306,0,206.993,0,189.5l0,0
		c0-17.493,14.312-31.806,31.806-31.806h315.388c17.493,0,31.806,14.312,31.806,31.806l0,0
		C378.999,206.993,364.686,221.306,347.193,221.306z"/>
	<g id="XMLID_1115_">
		<path id="XMLID_1893_" style="fill:none;stroke:#FFFEB9;stroke-width:25;stroke-linecap:round;stroke-miterlimit:10;" d="
			M30.499,179.5c26.498,0,26.498,20,52.996,20s26.498-20,52.997-20c26.5,0,26.5,20,52.999,20s26.499-20,52.998-20
			c26.503,0,26.503,20,53.005,20c26.503,0,26.503-20,53.005-20"/>
	</g>
</g>
<g>
</g>
<g>
</g>
<g>
</g>
<g>
</g>
<g>
</g>
<g>
</g>
<g>
</g>
<g>
</g>
<g>
</g>
<g>
</g>
<g>
</g>
<g>
</g>
<g>
</g>
<g>
</g>
<g>
</g>
</svg>
