<?xml version="1.0" encoding="utf-8"?>
<!-- Generator: Adobe Illustrator 23.0.5, SVG Export Plug-In . SVG Version: 6.00 Build 0)  -->
<svg version="1.1" id="Layer_1" xmlns="http://www.w3.org/2000/svg" xmlns:xlink="http://www.w3.org/1999/xlink" x="0px" y="0px"
	 viewBox="0 0 1080 1080" style="enable-background:new 0 0 1080 1080;" xml:space="preserve">
<style type="text/css">
	.st0{fill:#2B2D42;}
	.st1{fill:#D8C67C;}
</style>
<g>
	<g>
		<path class="st0" d="M171,848.5c5.2-3.6,7.7-18,7.7-43v-46.1c0-25-2.6-39.4-7.7-43h48c16.5,0,30.4,6.3,41.7,18.8
			c11.3,12.5,17,28.3,17,47.3c0,19-5.7,34.8-17,47.3c-11.3,12.5-25.2,18.8-41.7,18.8h-40.2H171z M218.9,719h-26.8v126.9h26.8
			c12.5,0,22.8-6.1,31.1-18.3c8.2-12.2,12.4-27.2,12.4-45.1c0-17.9-4.1-32.9-12.4-45.1C241.8,725.1,231.4,719,218.9,719z"/>
		<path class="st0" d="M289.6,848.5c5.2-3.6,7.7-18,7.7-43v-46.1c0-25-2.6-39.4-7.7-43h75.5c1.1,10.1,1.8,16.1,1.9,18.1
			c-8.3-10.3-23.3-15.5-44.9-15.5h-11.3V775h2.8c25,0,39.4-2.6,43-7.7v10.4v7.7c-3.7-5.2-18-7.7-43-7.7h-2.8v68.2h16.2
			c11.7,0,21.3-1.4,28.9-4.2s12.9-6.6,16-11.2l-2.1,18.1h-72.5H289.6z"/>
		<path class="st0" d="M403.2,716.3l38.1,76.8l37.2-76.8h13.4h7.7c-5.2,3.7-7.7,18-7.7,43v46.1c0,25,2.6,39.4,7.7,43h-10.4h-7.7
			c5.2-3.6,7.7-18,7.7-43v-83.6l-41,85.2h-2.8l-42.3-85.3v83.8c0,25,2.6,39.4,7.7,43h-21.1h-7.7c5.2-3.6,7.7-18,7.7-43v-46.1
			c0-25-2.6-39.4-7.7-43H403.2z"/>
		<path class="st0" d="M549.5,845.9c11.7,0,21.3-1.4,28.9-4.2s12.9-6.6,16-11.2l-2.1,18.1h-72.5h-7.7c5.2-3.6,7.7-18,7.7-43v-46.1
			c0-25-2.6-39.4-7.7-43h75.5c1.1,10.1,1.8,16.1,1.9,18.1c-8.3-10.3-23.3-15.5-44.9-15.5h-11.3V775h2.8c25,0,39.4-2.6,43-7.7v10.4
			v7.7c-3.7-5.2-18-7.7-43-7.7h-2.8v68.2H549.5z M575.8,670.3L556,701h-2.6l8.9-30.8H575.8z"/>
		<path class="st0" d="M601.5,716.3h107.6c1.5,10.2,2.4,16.2,2.6,18.1c-8.8-10.3-24-15.5-45.7-15.5h-4v86.5c0,25,2.6,39.4,7.7,43
			h-21.3h-7.6c5-3.6,7.6-18,7.6-43V719h-4c-7.9,0-15,0.8-21.3,2.3c-6.3,1.5-11.3,3.4-15,5.6c-3.7,2.2-6.8,4.8-9.3,7.6L601.5,716.3z"
			/>
		<path class="st0" d="M718.5,848.5c5.2-3.6,7.7-18,7.7-43v-46.1c0-25-2.6-39.4-7.7-43H794c1.1,10.1,1.8,16.1,1.9,18.1
			c-8.3-10.3-23.3-15.5-44.9-15.5h-11.3V775h2.8c25,0,39.4-2.6,43-7.7v10.4v7.7c-3.7-5.2-18-7.7-43-7.7h-2.8v68.2h16.2
			c11.7,0,21.3-1.4,28.9-4.2c7.6-2.8,12.9-6.6,16-11.2l-2.1,18.1h-72.5H718.5z"/>
		<path class="st0" d="M880.1,848.5c3.3-2.3-5.9-16.6-27.4-42.9l-14.4-17.4h-6.2v17.2c0,25,2.6,39.4,7.7,43h-21.1H811
			c5.2-3.6,7.7-18,7.7-43v-46.1c0-25-2.6-39.4-7.7-43h53.2c11.6,0,21.2,3.6,28.8,10.8c7.6,7.2,11.4,15.6,11.4,25.2
			c0,9.6-3.8,18-11.4,25.2c-7.6,7.2-17.2,10.8-28.8,10.8h-12.5l14.2,17.2c19.5,23.7,33.9,38,43,43h-7.7h-13.4H880.1z M832.2,719
			v66.6h32.1c5.8,0,10.6-1.6,14.4-4.9c3.8-3.3,6.5-7.3,8-12.1c1.5-4.8,2.3-10.2,2.3-16.3c0-6.1-0.8-11.5-2.3-16.3
			c-1.5-4.8-4.2-8.8-8-12.1c-3.8-3.3-8.7-4.9-14.4-4.9H832.2z"/>
	</g>
	<g>
		<path class="st1" d="M211.3,926.8l0.1,0.2c0.1,4.5-1.5,8.3-4.8,11.4c-3.3,3-7.6,4.6-13,4.6c-5.5,0-9.9-1.9-13.3-5.8
			c-3.4-3.9-5.2-8.8-5.2-14.7v-8.6c0-5.9,1.7-10.9,5.2-14.7c3.4-3.9,7.9-5.8,13.3-5.8c5.5,0,9.8,1.5,13,4.4
			c3.2,2.9,4.8,6.8,4.7,11.6l-0.1,0.2H205c0-3.4-1-6.1-3-8c-2-2-4.8-3-8.4-3c-3.6,0-6.6,1.5-8.7,4.4c-2.2,2.9-3.2,6.6-3.2,10.9v8.7
			c0,4.4,1.1,8.1,3.2,11c2.2,2.9,5.1,4.4,8.7,4.4c3.6,0,6.4-1,8.4-2.9c2-2,3-4.7,3-8.1H211.3z"/>
		<path class="st1" d="M324.6,922.4c0,5.9-1.8,10.8-5.5,14.7c-3.7,3.9-8.4,5.8-14.2,5.8c-5.6,0-10.2-1.9-13.7-5.8
			c-3.5-3.9-5.3-8.8-5.3-14.7v-8.6c0-5.9,1.8-10.8,5.3-14.7c3.5-3.9,8.1-5.9,13.7-5.9c5.8,0,10.6,2,14.2,5.9
			c3.7,3.9,5.5,8.8,5.5,14.7V922.4z M318,913.7c0-4.4-1.2-8-3.6-10.9c-2.4-2.8-5.6-4.2-9.6-4.2c-3.8,0-6.8,1.4-9.1,4.2
			c-2.3,2.8-3.4,6.5-3.4,10.9v8.7c0,4.5,1.1,8.1,3.4,10.9c2.3,2.8,5.3,4.2,9.1,4.2c4,0,7.3-1.4,9.6-4.2c2.4-2.8,3.6-6.5,3.6-11
			V913.7z"/>
		<path class="st1" d="M425.8,933.2h0.2l15.4-39.2h8.1v48.3H443v-36.2l-0.2,0l-14.6,36.2h-4.5l-15.1-37.4l-0.2,0v37.4h-6.5V894h8.6
			L425.8,933.2z"/>
		<path class="st1" d="M554.3,929.8h-18.2l-4.3,12.4h-6.7l17.4-48.3h5.6l17,48.3h-6.7L554.3,929.8z M538,924.3h14.4l-7-20.7h-0.2
			L538,924.3z"/>
		<path class="st1" d="M676.7,942.2h-6.5l-23.2-36.9l-0.2,0.1v36.8h-6.5V894h6.5l23.2,36.8l0.2-0.1V894h6.5V942.2z"/>
		<path class="st1" d="M755.9,942.2V894h15.2c6.3,0,11.4,1.9,15.2,5.8c3.8,3.9,5.8,8.9,5.8,15v6.6c0,6.2-1.9,11.2-5.8,15
			c-3.8,3.9-8.9,5.8-15.2,5.8H755.9z M762.4,899.1v38h8.7c4.5,0,8-1.5,10.6-4.4c2.6-2.9,3.9-6.7,3.9-11.3v-6.7
			c0-4.6-1.3-8.3-3.9-11.2c-2.6-2.9-6.1-4.4-10.6-4.4H762.4z"/>
		<path class="st1" d="M894,929.8h-18.2l-4.3,12.4h-6.7l17.4-48.3h5.6l17,48.3h-6.7L894,929.8z M877.7,924.3h14.4l-7-20.7h-0.2
			L877.7,924.3z"/>
	</g>
	<g>
		<g>
			<path class="st0" d="M470.5,472.6c7.4-5.3,11.2-26,11.2-62.1v-66.5c0-36.1-3.7-56.8-11.2-62.1h69.2c23.8,0,43.9,9,60.2,27.1
				c16.3,18.1,24.5,40.8,24.5,68.2c0,27.4-8.2,50.2-24.5,68.2c-16.3,18.1-36.4,27.1-60.2,27.1h-58H470.5z M539.7,285.8H501v183.1
				h38.7c18,0,32.9-8.8,44.8-26.4c11.9-17.6,17.8-39.3,17.8-65.1c0-25.8-6-47.5-17.8-65.1C572.6,294.6,557.7,285.8,539.7,285.8z"/>
		</g>
		<g>
			<path class="st1" d="M539.2,137.1c-132.3,0.4-239.3,107.6-239.5,240.1c0,55.2,18.6,106.3,50.1,147l-30.6,105.7l108.2-40.2
				C461.7,607.8,501,618,543,617.5c130.3-1.4,237.1-107,237.3-240C780.4,244.4,672.8,136.7,539.2,137.1z M540.4,609.4
				c-41.1,0.1-79.6-10.5-113.1-29.1l-10,3.7l0,0l-84.6,31.5l23.9-82.8l0,0l1.3-4.4l1.2-4.3l0,0l0.2-0.8
				c-31.7-39.2-50.9-89-51.5-143.2C306.5,250.5,410.8,145.3,540,145.2c127.4,0,230.9,102.5,232.1,229.8
				C773.3,504.4,669.2,609.2,540.4,609.4z"/>
			<path class="st1" d="M757.4,331.2c-0.7-3.7-1.7-7.3-2.9-10.9c-0.9-2.8-2.8-4-5-3.4c-8.4,2.3-16.7,4.7-25.1,7.1
				c-2.8,0.8-5.5,1.6-8.1,2.4c-4.3-13.8-9.6-26.9-16.7-39.2c3.2-1.9,6.2-3.6,9.4-5.5c1.7,3,3.6,6,5.1,9.1c2.5,5.2,4.7,10.5,7,15.8
				c1.5,3.4,3.2,4.2,6.7,3c5.4-1.9,10.7-3.8,16.1-5.7c3.3-1.2,4.6-3.6,3.2-6.9c-2.1-5.3-4.2-10.6-6.7-15.7c-2.6-5.5-5.4-10.9-8.6-16
				c-5-7.9-10.5-15.5-15.9-23.2c-1.4-2-4-2.3-5.9-0.8c-2,1.5-3.9,3-5.8,4.5c-5.8,4.7-11.6,9.5-17.5,14.2c-1.1,0.9-2.4,1.6-3.7,2.5
				c-9-11.2-19-21-30.3-29.8c2.3-3,4.4-5.8,6.5-8.6c1.8,1.3,3.5,2.3,4.9,3.6c5.5,5.1,10.9,10.2,16.3,15.3c2,1.9,4.6,2,6.5,0.2
				c4.3-4,8.5-8,12.7-12c2.9-2.8,3-4.7,0.2-7.6c-2.6-2.7-5.3-5.3-8-7.9c-1.7-1.7-3.4-3.6-5.2-5.2c-4.2-3.4-8.5-6.8-12.9-10
				c-5.4-3.9-10.9-7.7-16.4-11.5c-1.9-1.3-3.8-2.6-5.8-3.8c-3.1-1.8-5.6-1-7.3,2.1c-3.2,5.8-6.4,11.5-9.6,17.3
				c-2.2,3.9-4.4,7.9-6.6,11.9c-12.7-6.7-25.7-12.5-39.8-16c1-3.5,2-6.9,3.1-10.5c4.4,1.3,8.6,2.2,12.7,3.6c4.6,1.6,9,3.7,13.4,5.5
				c3.4,1.4,5.1,0.8,6.7-2.6c2.4-5.1,4.7-10.2,7.1-15.2c1.8-3.9,1.1-5.9-2.9-7.7c-3.3-1.5-6.6-3.1-10-4.2
				c-10.9-3.4-21.7-6.7-32.7-9.6c-5.4-1.4-11.1-1.8-16.6-2.5c-3.2-0.4-5.4,1-5.7,3.3c-0.7,6.3-1.4,12.7-2,19.1
				c-0.5,5-0.9,9.9-1.3,15.1c-14.5-1.6-28.7-1.5-43,0.3c-0.5-3.6-0.9-7.1-1.4-10.6c0.8-0.1,1.3-0.2,1.7-0.2
				c8.5-0.4,17.1-0.8,25.6-1.1c3.7-0.1,5.4-1.7,5.6-5.3c0.3-5.9,0.5-11.8,0.8-17.8c0.1-2.1-0.9-3.5-2.7-4.1c-1.3-0.5-2.7-0.6-4-0.7
				c-12.3-0.2-24.5,0.6-36.6,2.7c-7.9,1.4-15.7,3-23.5,4.8c-3.6,0.8-4.6,3.1-3.6,6.6c2.9,10,5.8,19.9,8.7,29.9
				c0.2,0.6,0.3,1.3,0.4,1.8c-13.6,4.6-26.7,9.6-39,16.9c-1.9-3.2-3.7-6.3-5.6-9.6c4.4-2.3,8.7-4.6,13-6.7c4.3-2.1,8.7-3.8,13-5.9
				c2.4-1.2,3-3,2.1-5.6c-2-5.6-4-11.1-6-16.7c-1.1-3.1-3.7-4.4-6.7-3.1c-6.8,3-13.6,6.1-20.3,9.3c-2.6,1.2-5.1,2.8-7.6,4.3
				c-5.5,3.3-11,6.4-16.3,9.9c-3.7,2.4-7.1,5.1-10.6,7.8c-1.9,1.4-2.3,4.2-0.8,6.2c1.7,2.2,3.4,4.3,5.1,6.5
				c4.8,5.9,9.6,11.7,14.5,17.6c0.4,0.5,1,1.1,1.1,1.7c0.1,0.6,0,1.6-0.4,1.9c-3,2.8-6.3,5.4-9.2,8.3c-5.1,5-10,10.1-14.9,15.3
				c-1.7,1.8-3.1,3.8-4.7,5.8c-2.9-2.2-5.7-4.3-8.7-6.5c1.6-2.1,2.9-4.1,4.5-5.8c4.8-5.2,9.7-10.3,14.5-15.5c2.2-2.3,2.2-4.1,0-6.4
				c-4.1-4.4-8.2-8.7-12.3-13c-2.4-2.5-4.2-2.6-6.8-0.3c-2.4,2.2-4.7,4.6-7,6.9c-2.1,2.1-4.3,4-6.1,6.3c-3.5,4.2-6.8,8.5-10,12.9
				c-3.9,5.3-7.6,10.8-11.4,16.2c-1.4,2-2.8,4.1-4,6.2c-1.5,2.6-1.2,5.9,0.6,6.9c3.2,1.9,6.4,3.7,9.6,5.5c4.6,2.5,9.3,5,14,7.5
				c2.3,1.2,4.6,2.4,7,3.6c-6.7,12.9-12.6,25.9-15.9,40c-3.6-1.1-7-2-10.5-3c1.3-4.6,2.4-9.1,3.9-13.4c1.5-4.4,3.5-8.7,5.3-13
				c1.2-3,0.6-4.8-2.4-6.2c-5.3-2.5-10.6-5-15.9-7.4c-3.7-1.7-5.5-0.8-7.3,2.9c-5.5,11.7-9.1,24-12.2,36.5c-1.8,7.4-2.8,15.1-4,22.7
				c-0.6,4,1.1,5.9,5,6.2c7.3,0.6,14.6,1.2,21.8,1.9c3.5,0.3,7,0.9,10.6,1.3c-1.4,14-1.3,27.7,0.3,41.6c-3.6,0.4-7.1,0.9-10.6,1.3
				c-0.1-0.7-0.1-1.1-0.2-1.5c-0.4-8.1-0.8-16.3-1.1-24.4c-0.1-3.7-1.5-5.3-5.3-5.5c-5.7-0.3-11.4-0.5-17.1-0.8
				c-3.5-0.1-5.3,1.5-5.4,5c-0.1,2.8-0.2,5.6,0,8.3c1,11.3,1.9,22.7,3.3,34c0.8,6.1,2.4,12.2,4,18.2c0.9,3.4,3,4.3,6.3,3.3
				c7.3-2,14.5-4,21.8-6.1c3.4-1,6.8-2.1,10.1-3.1c4.4,13.8,9.6,26.9,16.8,39.2c-3.1,1.8-6.2,3.6-9.4,5.5c-1.4-2.5-3.1-4.9-4.3-7.6
				c-2.7-5.7-5.2-11.5-7.7-17.2c-1.6-3.5-3.3-4.3-6.9-3.1c-5.3,1.9-10.6,3.7-15.9,5.6c-3.6,1.3-4.7,3.7-3.2,7.2
				c3.1,7,6.2,14,9.6,20.9c2.2,4.5,4.5,9.1,7.3,13.3c4.4,6.7,9.2,13.2,13.9,19.8c1.8,2.6,4.2,2.9,6.7,1c3.2-2.5,6.4-5,9.5-7.6
				c1.3-1,2.4-2.2,3.6-3.2c2.2-1.8,4.5-3.5,6.7-5.2c2.1-1.7,4.3-3.3,6.5-5.1c9.1,11.5,19.2,21.2,30.3,30c-2.3,3-4.4,5.8-6.9,9.1
				c-7.1-6.6-13.8-12.8-20.5-19.2c-2.4-2.2-4.7-2.5-7-0.3c-4.3,4-8.5,8-12.7,12c-2.6,2.4-2.9,4.4-0.5,6.9c4.4,4.7,8.9,9.3,13.7,13.6
				c4.1,3.7,8.6,6.9,13,10.2c5.3,3.8,10.6,7.5,16,11.2c2,1.4,4.1,2.8,6.2,4c2.8,1.6,5.4,0.8,7-2c1.4-2.5,3-5,4.4-7.6
				c2.4-4.4,4.7-8.8,7.1-13.2c1.6-2.9,3.2-5.7,4.8-8.7c12.6,6.8,25.7,12.5,39.8,16.1c-1,3.4-1.9,6.8-3,10.5
				c-4.5-1.3-8.8-2.3-12.9-3.8c-4.7-1.7-9.2-3.8-13.9-5.6c-2.7-1.1-4.5-0.4-5.8,2.1c-2.7,5.7-5.5,11.5-8.1,17.3
				c-0.8,1.8-0.7,3.6,1.2,4.6c3.7,1.9,7.4,4.2,11.4,5.4c12.2,3.8,24.4,7.3,36.7,10.6c4.3,1.2,9,1.4,13.5,1.9c3.3,0.4,5.5-1,5.8-3.5
				c0.7-7.2,1.4-14.4,2.1-21.6c0.4-4.1,0.8-8.2,1.3-12.4c14.5,1.6,28.6,1.5,42.9-0.3c0.5,3.6,0.9,7.1,1.4,10.7
				c-1.1,0.1-1.9,0.3-2.8,0.3c-8.4,0.4-16.8,0.7-25.1,1c-3.1,0.1-4.8,1.8-4.9,4.9c-0.3,5.9-0.5,11.8-0.8,17.8
				c-0.1,2.4,0.9,4,3.2,4.7c1,0.3,2.1,0.4,3.2,0.4c12.3,0.3,24.5-0.5,36.6-2.6c8-1.4,16-3.1,23.9-4.9c3.5-0.8,4.5-3.1,3.5-6.4
				c-2.9-10.1-5.9-20.2-8.8-30.3c-0.1-0.5-0.2-1-0.3-1.4c13.6-4.5,26.7-9.6,39-16.9c1.9,3.2,3.7,6.2,5.6,9.6
				c-4.4,2.3-8.5,4.6-12.8,6.7c-4.3,2.1-8.7,3.8-13.1,5.8c-2.5,1.2-3.2,3.1-2.3,5.7c2,5.6,3.9,11.1,6,16.7c1.2,3.2,3.8,4.5,6.9,3
				c7.5-3.4,14.9-6.9,22.3-10.4c1.9-0.9,3.6-2.1,5.4-3.1c5.5-3.3,11.1-6.5,16.5-10c3.6-2.3,6.9-5.1,10.4-7.7
				c1.9-1.4,2.3-4.2,0.8-6.1c-2-2.6-4-5.2-6.1-7.7c-4.1-5-8.3-10-12.4-15.1c-0.8-0.9-1.6-1.9-2.1-3c-0.2-0.5,0-1.5,0.4-1.9
				c3-2.8,6.3-5.4,9.2-8.3c5.1-5,10-10.1,14.9-15.3c1.7-1.8,3.1-3.8,4.7-5.8c3,2.2,5.8,4.3,8.7,6.6c-1.7,2.2-3.2,4.2-4.9,6.1
				c-4.7,5.2-9.6,10.2-14.3,15.4c-2,2.2-2,4,0,6.1c4.1,4.4,8.3,8.8,12.5,13.2c2.4,2.5,4.3,2.6,6.9,0.2c2.3-2.1,4.5-4.3,6.6-6.6
				c4.1-4.4,8.4-8.7,12.1-13.5c5-6.5,9.6-13.3,14.3-20c1.8-2.6,3.6-5.4,5.2-8.1c1.9-3.3,1.1-6-2.2-7.8c-7.7-4.3-15.4-8.6-23.1-12.9
				c-1.9-1-3.8-1.8-5.9-2.7c6.8-12.9,12.5-25.9,16-40.1c3.6,1,7,2,10.6,3c-1.5,4.9-2.7,9.6-4.3,14.1c-1.5,4.2-3.4,8.3-5,12.4
				c-1.2,2.9-0.5,4.8,2.3,6.1c5.4,2.5,10.9,4.9,16.3,7.6c3.1,1.6,5.4,0.4,6.9-2.7c1.6-3.3,3.1-6.5,4.2-10
				c3.4-10.9,6.7-21.7,9.6-32.7c1.4-5.5,1.9-11.2,2.5-16.9c0.5-4.1-1.1-5.8-5.1-6.2c-5.8-0.5-11.5-0.9-17.3-1.5
				c-5-0.5-10-1.1-14.8-1.7c0.2-7.2,0.7-14,0.7-20.8c0-6.9-0.6-13.8-0.9-20.9c3.3-0.4,6.7-0.8,10.3-1.3c0.1,0.9,0.3,1.5,0.3,2.2
				c0.3,8,0.7,16,1,24c0.1,3.1,1.6,5.1,4.3,5.2c6.1,0.3,12.2,0.6,18.2,0.8c3.1,0.1,4.9-1.5,5.2-4.6c0.1-0.7,0.1-1.4,0.1-2.1
				C762.3,363.2,760.3,347.1,757.4,331.2z M754,377.2c-3.9,0-7.7,0-12,0c0-1.8,0.1-3.6,0-5.3c-0.5-7.7-0.9-15.3-1.5-23
				c-0.3-3.6-2.7-5.2-6.3-4.6c-5.5,1-11.1,1.9-16.6,2.8c-2.9,0.5-4.1,2.3-3.8,5.5c0.7,7,1.7,13.9,1.7,20.9
				c0.1,8.4-0.6,16.7-1.2,25.1c-0.3,4.3,0.7,5.9,5,6.6c10.3,1.5,20.7,3,31,4.6c0.3,0,0.6,0.1,1,0.2c-1.4,16.9-7.3,32.5-12.8,48.6
				c-3.9-1.7-7.4-3.2-11.1-4.8c1.4-3.7,2.9-7.3,4.1-10.9c1.7-5.6,3.3-11.2,4.8-16.8c0.8-3-0.5-5-3.4-5.7c-5.7-1.4-11.4-2.7-17.1-3.9
				c-3-0.6-4.6,0.5-5.5,3.5c-1.6,5.4-2.9,10.8-4.8,16.1c-1.8,5-4,9.8-6.2,14.6c-2.3,4.9-4.8,9.6-7.2,14.4c-1.3,2.5-0.9,4.3,1.6,5.9
				c3.2,2,6.6,3.9,9.9,5.9c3.9,2.4,7.8,5,11.7,7.4c2.5,1.6,5.2,3,7.9,4.6c-9.1,14.3-19,27.5-30.9,39.3c-3-2.8-5.8-5.5-8.2-7.7
				c6.4-7.8,12.6-15.2,18.7-22.8c2-2.5,1.5-4.5-1.1-6.5c-4.5-3.3-9.1-6.5-13.6-9.8c-3.2-2.2-4.7-1.8-7.1,1.2
				c-4.6,5.6-9.2,11.3-14.3,16.5c-5.6,5.7-11.7,10.8-17.6,16.1c-1,0.9-2.2,1.7-2.7,2.8c-0.5,1.1-0.8,2.7-0.5,3.8
				c0.6,1.7,1.7,3.3,2.7,4.8c4.1,5.6,8.3,11.1,12.4,16.7c1.8,2.4,3.5,4.8,5.5,7.4c-13.7,9.9-28,18.2-43.6,24.5
				c-1.5-3.6-2.9-7.2-4.4-11.1c2.1-0.8,4.2-1.5,6.1-2.4c4.8-2.4,9.5-5,14.3-7.5c1.8-0.9,3.6-1.8,5.3-2.8c3.3-2,3.7-4.1,1.7-7.4
				c-2.9-4.6-5.8-9.2-8.7-13.9c-1.8-2.8-4.1-3.4-7.1-1.8c-3.9,2.2-7.6,4.7-11.7,6.5c-7.8,3.5-15.7,6.7-23.6,9.8
				c-2.9,1.1-6.1,1.6-9.1,2.5c-2.9,0.9-3.9,2.9-3.1,5.9c2.5,10.5,5,20.9,7.5,31.4c0.1,0.4,0.1,0.9,0.2,1.3
				c-6.4,2.6-42.3,7.1-49.3,5.7c0-3.8,0-7.6,0-11.6c0.9,0,1.7-0.1,2.5-0.1c8.7-0.6,17.5-1.1,26.2-1.9c3.6-0.3,4.8-2.4,4.2-6
				c-1-5.6-2-11.2-3.1-16.8c-0.5-2.9-1.8-3.9-4.9-3.6c-4.7,0.5-9.5,1.2-14.2,1.5c-11,0.8-22,0.5-32.9-0.9c-1.6-0.2-3.5,0.1-5,0.8
				c-0.9,0.4-1.6,1.9-1.7,3c-1.2,7.4-2.2,14.9-3.3,22.4c-0.5,3.6-1.2,7.1-1.8,10.9c-4.3-0.7-8.4-1-12.4-2
				c-7.9-2.1-15.8-4.5-23.7-6.9c-3.6-1.1-7.1-2.4-10.7-3.6c-1.1-0.4-1.7-0.9-1.1-2.2c1.4-3.1,2.8-6.3,4.2-9.6c2.1,0.9,4,1.9,6.1,2.5
				c7.2,2.3,14.4,4.4,21.6,6.6c2.9,0.8,5-0.4,5.8-3.4c1.5-5.8,2.8-11.6,4.2-17.5c0.6-2.5-1-4.4-3.8-5.2c-5.5-1.6-11.2-2.9-16.5-4.9
				c-9.5-3.6-18.8-7.5-27.5-12.8c-3.5-2.1-5.1-1.6-7.2,1.7c-5.4,8.8-10.7,17.5-16.1,26.3c-0.4,0.7-0.9,1.4-1.5,2.4
				c-1.8-1.3-3.6-2.4-5.3-3.7c-7.5-5.5-15-10.9-22.3-16.6c-3.6-2.8-6.8-6.2-10.2-9.3c-1.3-1.2-1-2,0.2-3.2c2.3-2.3,4.3-4.8,6.4-7.1
				c7.2,7.6,14.7,13.7,22.4,19.5c2.8,2.1,4.7,1.7,6.6-1c3.3-4.5,6.6-9.1,9.8-13.6c2.2-3.1,1.9-4.6-1-7c-8.2-6.8-16.5-13.5-23.6-21.6
				c-3.6-4.2-7.2-8.4-10.9-12.5c-2.1-2.3-3.7-2.4-6.2-0.6c-6.6,4.7-13.2,9.4-19.8,14.2c-2.5,1.8-4.9,3.6-7.5,5.6
				c-9.9-13.9-18.2-28.1-24.3-43.6c3.6-1.5,7.2-3,10.9-4.6c1,2.4,1.7,4.7,2.8,6.9c2.3,4.6,4.8,9.1,7.2,13.7c1,1.8,1.9,3.7,2.9,5.4
				c1.9,3,4.1,3.4,7.1,1.4c4.6-3,9.4-5.8,14.1-8.8c2.7-1.7,3.3-4,1.7-6.9c-2.2-3.8-4.6-7.5-6.4-11.5c-3.4-7.6-6.6-15.4-9.6-23.2
				c-1.2-3-1.7-6.2-2.5-9.3c-1-3.5-2.8-4.4-6.4-3.5c-10.7,2.6-21.5,5.1-32.2,7.7c-2.6-5.7-7-41.1-5.8-49.4c3.8,0,7.6,0,11.7,0
				c0,0.8,0.1,1.6,0.2,2.4c0.5,8.5,0.9,17.1,1.5,25.6c0.3,4.1,2.6,5.6,6.6,4.9c5.3-0.9,10.6-1.8,15.9-2.6c3.1-0.5,4.6-2.2,4.1-5.5
				c-1.7-10.4-2-20.8-1.7-31.3c0.2-5.1,0.7-10.1,1.2-15.2c0.4-3.8-0.9-5.6-4.7-6.1c-10.4-1.5-20.8-3.1-31.3-4.6
				c-0.4-0.1-0.7-0.2-1.1-0.3c0-9,8-38.7,13-48.4c3.5,1.5,7.1,3.1,10.8,4.7c-1.5,4-3.2,7.9-4.5,11.9c-1.7,5.4-3.1,10.9-4.5,16.4
				c-0.6,2.5,0.6,4.4,3.2,5c5.9,1.5,11.8,2.9,17.7,4.1c2.8,0.6,4.3-0.7,5.2-3.6c1.7-5.7,3-11.5,5.1-17c3.5-9.4,7.4-18.7,12.7-27.3
				c2-3.3,1.5-5-1.8-7c-7.1-4.3-14.1-8.7-21.2-13c-2.4-1.5-4.9-2.8-7.6-4.4c9-14.3,19-27.5,30.7-39.2c3.1,2.8,6,5.5,8.6,7.9
				c-2.4,2.8-4.6,5.2-6.7,7.7c-2.2,2.5-4.5,5-6.7,7.6c-1.9,2.3-3.7,4.7-5.5,7.1c-2,2.8-1.6,4.6,1.2,6.6c4.5,3.3,9.1,6.6,13.6,9.8
				c3.1,2.2,4.6,1.7,7.1-1.3c4.3-5.3,8.6-10.6,13.4-15.5c5.8-5.9,12.1-11.2,18.2-16.8c0.9-0.8,1.8-1.7,2.7-2.5
				c1.6-1.6,1.7-3.4,0.4-5.2c-2.6-3.7-5.2-7.4-7.9-11c-3.1-4.2-6.3-8.3-9.4-12.6c-1-1.3-1.7-2.9-2.7-4.5c13.6-9.6,27.8-18,43.4-24.3
				c1.5,3.6,2.9,7.1,4.4,10.9c-1.2,0.6-2.3,1.2-3.4,1.7c-5.7,2.9-11.4,5.7-17,8.6c-1.8,0.9-3.6,1.7-5.3,2.7
				c-3.1,1.9-3.4,4.1-1.5,7.1c2.9,4.5,5.7,9.1,8.5,13.7c2.2,3.5,4.3,3.9,7.9,1.8c3.8-2.2,7.5-4.6,11.5-6.4c7.6-3.4,15.2-6.5,23-9.5
				c2.9-1.1,6.1-1.6,9.1-2.5c3.1-0.9,4-2.9,3.3-6c-2.7-10.8-5.2-21.6-7.9-32.4c5-2.6,39.7-6.9,49.3-6c0,3.9,0,7.7,0,12
				c-1.7,0-3.3-0.1-5,0c-7.4,0.4-14.7,0.8-22.1,1.4c-5.1,0.4-6.4,2.5-5.4,7.6c1,4.8,1.8,9.7,2.6,14.5c0.7,4.1,2,5.1,6.1,4.5
				c15.6-2.4,31.3-2.4,46.9-0.4c3.8,0.5,5.6-0.8,6.1-4.6c1.5-10,3-20.1,4.5-30.1c0.1-0.7,0.3-1.5,0.4-2.2
				c8.8,0.1,39.5,8.4,48.4,13.2c-1.5,3.6-3.1,7.2-4.7,10.9c-2.7-1.1-5.1-2.3-7.6-3.1c-6.6-2.1-13.2-4-19.9-5.9
				c-3.3-0.9-5.2,0.2-6,3.5c-1.4,5.7-2.8,11.4-4,17.1c-0.6,2.4,0.6,4.4,3.1,5.1c2.8,0.9,5.6,1.8,8.4,2.5c7.9,1.7,15.1,5.1,22.3,8.6
				c5,2.4,10,5,15,7.6c2.4,1.2,4.3,0.7,5.8-1.8c5.5-9,11-17.9,16.5-26.9c0.4-0.7,0.9-1.4,1.5-2.4c2,1.4,3.9,2.7,5.7,4
				c7,5.2,14.2,10.3,21.1,15.6c3.6,2.8,6.8,6,10.1,9c2.5,2.3,2.4,2.4,0,4.8c-2,2-3.9,4.1-5.7,6c-5.4-4.8-10.5-9.4-15.7-13.8
				c-2.1-1.8-4.4-3.5-6.8-5.2c-2.7-1.9-4.6-1.5-6.5,1.1c-3.3,4.6-6.7,9.2-10,13.8c-2.1,2.9-1.7,4.5,1.1,6.8
				c5.2,4.4,10.6,8.6,15.4,13.4c5.8,5.8,11.1,12,16.6,18.1c0.3,0.3,0.6,0.7,0.9,1.1c3.8,4.1,4.3,4.4,9,1.2c7.1-4.9,14-10.2,21-15.3
				c1.6-1.2,3.3-2.2,5.3-3.5c9.8,13.7,18.1,28.1,24.2,43.5c-3.6,1.5-7.1,3-10.9,4.6c-0.9-2.3-1.6-4.5-2.6-6.5
				c-2.4-4.7-4.9-9.4-7.4-14.1c-1-1.8-1.9-3.7-3-5.4c-1.9-3-4.1-3.3-7.1-1.4c-4.6,3-9.4,5.8-14.1,8.8c-2.7,1.7-3.3,4-1.7,6.9
				c2.3,4.1,4.9,8,6.8,12.3c3.3,7.4,6.4,15,9.3,22.6c1.2,3,1.7,6.2,2.5,9.3c0.9,3.2,2.9,4.2,6.1,3.4c10.8-2.6,21.6-5.2,32.4-7.8
				C750.5,332.1,755.1,367.8,754,377.2z"/>
			<path class="st1" d="M537.2,212.8c-86.8,1-166.2,73.4-161.6,173.2c3.8,83.1,72.4,155.6,164.7,155.9
				c90-0.2,166.1-73.5,164.2-168.5C702.7,286.8,631.8,211.7,537.2,212.8z M539.4,533.7c-86.5-0.4-155.4-69.9-155.9-156.6
				c0.9-87.7,69.5-152.3,148.1-156c95.2-4.5,164.8,71.5,164.9,155.4C696.5,464.3,626.3,534.1,539.4,533.7z"/>
		</g>
	</g>
</g>
</svg>
